<svg width="57" height="60" viewBox="0 0 57 60" fill="none" xmlns="http://www.w3.org/2000/svg">
<path fill-rule="evenodd" clip-rule="evenodd" d="M38.7534 4.98942C35.3642 4.98938 33.1795 5.41962 30.6751 6.72584C29.7479 7.20945 28.8781 7.79185 28.0702 8.47132C27.2935 7.82995 26.4584 7.27428 25.5695 6.80582C23.0165 5.46031 20.7198 4.98938 17.4522 4.98938C8.70073 4.98938 2.34119 12.716 2.34119 22.751C2.34119 30.3295 6.30668 37.6501 13.693 44.7289C17.57 48.4446 22.5202 52.1217 26.0653 54.0779L28.0937 55.1971L30.122 54.0779C33.6672 52.1217 38.6173 48.4446 42.4944 44.7289C49.8807 37.6501 53.8462 30.3295 53.8462 22.751C53.8462 12.8222 47.4267 5.02769 38.7534 4.98942ZM49.1637 22.751C49.1637 28.6883 45.8538 34.7987 39.3631 41.0193C35.8244 44.4107 31.275 47.7999 28.0935 49.578C24.912 47.7999 20.3627 44.4107 16.8239 41.0193C10.3332 34.7987 7.02329 28.6883 7.02329 22.751C7.02329 15.3365 11.4331 9.97864 17.452 9.97864C20.05 9.97864 21.651 10.3069 23.4935 11.278C24.5818 11.8515 25.5437 12.6089 26.3764 13.5554L28.099 15.5135L29.8059 13.5399C30.6573 12.5555 31.6333 11.7809 32.7335 11.2071C34.522 10.2742 36.023 9.97864 38.7435 9.97866C44.688 10.0049 49.1637 15.4393 49.1637 22.751Z" fill="#A5A5A5"/>
</svg>
