<svg width="327" height="222" viewBox="0 0 327 222" fill="none" xmlns="http://www.w3.org/2000/svg">
<path d="M327 155.407H25.8795C-38.1886 155.407 28.0021 -10.9818 101.694 0.575352C158.061 9.41555 187.118 110.559 187.118 110.559C187.118 110.559 195.676 82.7547 215.696 82.7547C260.544 82.7547 257.845 127.644 278.949 141.525C300.053 155.407 327 155.407 327 155.407Z" fill="url(#paint0_linear)"/>
<path d="M110.634 76.0766C110.534 75.7763 110.834 75.0255 111.535 73.8243C112.236 72.5229 112.987 70.9712 113.788 69.1693C114.689 67.2673 115.54 65.165 116.34 62.8626C117.241 60.46 117.842 58.0074 118.142 55.5048C118.543 53.0021 118.543 50.4994 118.142 47.9968C117.742 45.4941 116.691 43.0915 114.989 40.7891C113.988 39.5878 112.486 38.9371 110.484 38.837C108.582 38.6368 106.38 38.9371 103.877 39.738C101.475 40.4387 98.9218 41.5899 96.2189 43.1917C93.6162 44.6932 91.2136 46.4952 89.0113 48.5974C86.8089 50.5995 84.9069 52.8519 83.3052 55.3546C81.8036 57.8573 80.9527 60.41 80.7525 63.0127C80.5523 65.115 80.6023 67.0671 80.9026 68.869C81.3031 70.6709 81.8036 72.3227 82.4042 73.8243C83.0049 75.3259 83.6556 76.7273 84.3563 78.0287C85.0571 79.3301 85.7078 80.4813 86.3084 81.4824C87.1092 82.8839 88.3606 84.4355 90.0624 86.1374C91.7642 87.8392 93.6162 89.7912 95.6183 91.9936C97.6204 94.0958 99.6226 96.4984 101.625 99.2013C103.627 101.904 105.379 104.957 106.88 108.361C108.382 111.765 109.433 115.569 110.034 119.773C110.634 123.978 110.584 128.633 109.883 133.738C108.782 141.146 107.03 147.302 104.628 152.208C102.225 157.213 99.5725 161.217 96.6694 164.22C93.8664 167.224 91.0134 169.376 88.1103 170.677C85.2072 172.079 82.8047 172.98 80.9026 173.38C79.401 173.681 77.5991 173.931 75.4969 174.131C73.4948 174.431 71.3425 174.381 69.04 173.981C66.8377 173.681 64.5853 172.98 62.2828 171.879C59.9804 170.878 57.9282 169.276 56.1263 167.073C54.024 164.571 52.3723 161.868 51.171 158.965C50.0698 156.462 49.269 153.559 48.7684 150.256C48.1678 147.052 48.4181 143.699 49.5192 140.195C50.3201 139.294 51.171 138.493 52.072 137.792C52.9729 137.092 53.8739 136.491 54.7748 135.99C55.7759 135.39 56.827 134.839 57.9282 134.339C59.2296 133.938 60.531 133.588 61.8323 133.288C62.9335 133.087 64.0847 132.987 65.286 132.987C66.5874 132.887 67.7887 133.037 68.8899 133.438C67.3883 135.14 66.3371 136.741 65.7365 138.243C65.3361 139.044 65.0358 139.744 64.8355 140.345C64.4351 142.247 64.285 144.499 64.3851 147.102C64.5853 149.805 65.1359 152.358 66.0368 154.76C67.0379 157.263 68.4394 159.365 70.2413 161.067C72.0432 162.869 74.4458 163.82 77.449 163.92C84.7567 164.12 90.9633 158.414 96.0688 146.802C97.7706 143.198 98.6215 139.544 98.6215 135.84C98.7216 132.136 98.2711 128.583 97.2701 125.179C96.3691 121.775 95.1178 118.622 93.5161 115.719C92.0145 112.716 90.4628 110.163 88.8611 108.061C87.2594 105.958 85.3073 103.706 83.0049 101.303C80.8025 98.8008 78.6002 96.098 76.3978 93.1949C74.1955 90.2918 72.1934 87.1384 70.3915 83.7348C68.6896 80.3312 67.5384 76.6272 66.9378 72.623C66.1369 67.017 66.6375 61.9116 68.4394 57.3067C70.3414 52.6017 72.8441 48.4973 75.9474 44.9936C79.1508 41.4898 82.6045 38.6368 86.3084 36.4345C90.1124 34.2321 93.466 32.8306 96.3691 32.23C112.486 29.0266 123.047 31.7295 128.053 40.3386C130.155 43.6421 131.306 47.1459 131.506 50.8498C131.707 54.5537 131.456 58.0074 130.756 61.2108C130.155 64.3141 129.354 66.967 128.353 69.1693C127.452 71.2715 126.852 72.4228 126.551 72.623C125.951 73.2236 125 73.8743 123.698 74.5751C122.397 75.2758 120.295 75.9265 117.391 76.5271C116.591 76.7273 115.79 76.8274 114.989 76.8274C114.288 76.8274 113.537 76.7774 112.737 76.6773C111.936 76.5772 111.235 76.377 110.634 76.0766Z" fill="#2A6180"/>
<defs>
<linearGradient id="paint0_linear" x1="174.052" y1="66.7377" x2="63.0004" y2="224.773" gradientUnits="userSpaceOnUse">
<stop stop-color="#FCDBD7"/>
<stop offset="1" stop-color="#94CDD4"/>
</linearGradient>
</defs>
</svg>
